<svg height="480pt" viewBox="-16 0 480 480" width="480pt" xmlns="http://www.w3.org/2000/svg" xmlns:xlink="http://www.w3.org/1999/xlink"><linearGradient id="a"><stop offset="0" stop-color="#e93e3a"/><stop offset=".35" stop-color="#ed683c"/><stop offset=".7" stop-color="#f3903f"/><stop offset="1" stop-color="#fdc70c"/></linearGradient><linearGradient id="b" gradientUnits="userSpaceOnUse" x1="224" x2="224" xlink:href="#a" y1="480" y2="-14.312"/><linearGradient id="c" gradientUnits="userSpaceOnUse" x1="128" x2="128" xlink:href="#a" y1="480.064" y2="-14.248"/><linearGradient id="d" gradientUnits="userSpaceOnUse" x1="176" x2="176" xlink:href="#a" y1="480.064" y2="-14.248"/><linearGradient id="e" gradientUnits="userSpaceOnUse" x1="328" x2="328" xlink:href="#a" y1="480.064" y2="-14.248"/><linearGradient id="f" gradientUnits="userSpaceOnUse" x1="376" x2="376" xlink:href="#a" y1="480.064" y2="-14.248"/><linearGradient id="g" gradientUnits="userSpaceOnUse" x1="136" x2="136" xlink:href="#a" y1="480.064" y2="-14.248"/><linearGradient id="h" gradientUnits="userSpaceOnUse" x1="181.944" x2="181.944" xlink:href="#a" y1="480.064" y2="-14.248"/><linearGradient id="i" gradientUnits="userSpaceOnUse" x1="90.056" x2="90.056" xlink:href="#a" y1="480.064" y2="-14.248"/><linearGradient id="j" gradientUnits="userSpaceOnUse" x1="408" x2="408" xlink:href="#a" y1="480.064" y2="-14.248"/><linearGradient id="k" gradientUnits="userSpaceOnUse" x1="360" x2="360" xlink:href="#a" y1="480.064" y2="-14.248"/><path d="m447.761719 406.0625-47.761719-191.046875v-63.015625c0-4.417969-3.582031-8-8-8h-128c-4.417969 0-8 3.582031-8 8v63.015625l-13.007812 52-18.992188-91.816406v-63.199219c0-4.417969-3.582031-8-8-8h-160c-4.417969 0-8 3.582031-8 8v63.199219l-47.832031 231.199219c-.1093752.527343-.167969 1.0625-.167969 1.601562v64c0 4.417969 3.582031 8 8 8h432c4.417969 0 8-3.582031 8-8v-64c0-.652344-.078125-1.304688-.238281-1.9375zm-431.761719 2.738281 47.832031-231.199219c.109375-.527343.167969-1.0625.167969-1.601562v-56h144v56c0 .539062.058594 1.074219.167969 1.601562l47.832031 231.199219v55.199219h-240zm416 55.199219h-160v-56c0-.539062-.058594-1.074219-.167969-1.601562l-21.375-103.328126 21.304688-85.125c.15625-.636718.238281-1.289062.238281-1.945312v-56h112v56c0 .652344.078125 1.304688.238281 1.9375l47.761719 191.046875zm0 0" fill="url(#b)"/><path d="m104 48c0-4.417969 3.582031-8 8-8h32c13.253906 0 24-10.746094 24-24v-16h-16v16c0 4.417969-3.582031 8-8 8h-32c-13.253906 0-24 10.746094-24 24v16h16zm0 0" fill="url(#c)"/><path d="m136 72v16h16v-16c0-4.417969 3.582031-8 8-8h32c13.253906 0 24-10.746094 24-24v-16h-16v16c0 4.417969-3.582031 8-8 8h-32c-13.253906 0-24 10.746094-24 24zm0 0" fill="url(#d)"/><path d="m304 88c0-4.417969 3.582031-8 8-8h32c13.253906 0 24-10.746094 24-24v-16h-16v16c0 4.417969-3.582031 8-8 8h-32c-13.253906 0-24 10.746094-24 24v16h16zm0 0" fill="url(#e)"/><path d="m336 112v16h16v-16c0-4.417969 3.582031-8 8-8h32c13.253906 0 24-10.746094 24-24v-16h-16v16c0 4.417969-3.582031 8-8 8h-32c-13.253906 0-24 10.746094-24 24zm0 0" fill="url(#f)"/><path d="m152 352c0 8.835938-7.164062 16-16 16s-16-7.164062-16-16 7.164062-16 16-16 16 7.164062 16 16zm0 0" fill="url(#g)"/><path d="m164.289062 376.96875c-3.125-3.125-8.1875-3.125-11.3125 0-9.503906 9.066406-24.449218 9.066406-33.953124 0-3.171876-3-8.136719-3-11.3125 0l-22.621094 22.632812c-3.125 3.121094-3.125 8.1875 0 11.308594 28.132812 28.074219 73.6875 28.074219 101.820312 0 3.125-3.121094 3.125-8.1875 0-11.308594zm-61.824218 27.878906 11.480468-11.472656c13.386719 8.792969 30.722657 8.792969 44.109376 0l11.480468 11.472656c-19.894531 14.832032-47.175781 14.832032-67.070312 0zm0 0" fill="url(#g)"/><path d="m164.433594 276.800781c-4.265625-1.140625-8.648438 1.390625-9.792969 5.65625l-8.289063 30.902344c-.5625 2.054687-.28125 4.25.777344 6.09375 1.0625 1.847656 2.8125 3.195313 4.871094 3.746094 12.804688 3.429687 20.40625 16.589843 16.976562 29.394531-1.144531 4.265625 1.386719 8.65625 5.65625 9.796875l30.902344 8.28125c.679688.183594 1.378906.277344 2.082032.273437 3.617187-.003906 6.78125-2.433593 7.71875-5.929687 10.273437-38.414063-12.507813-77.886719-50.902344-88.214844zm36.972656 76.160157-15.679688-4.199219c.933594-16-7.734374-31.019531-22.054687-38.21875l4.199219-15.671875c22.792968 9.820312 36.429687 33.441406 33.535156 58.089844zm0 0" fill="url(#h)"/><path d="m102.222656 358.625c1.0625-1.839844 1.351563-4.023438.800782-6.074219-3.402344-12.789062 4.191406-25.921875 16.976562-29.351562 4.269531-1.144531 6.800781-5.53125 5.65625-9.800781l-8.296875-30.941407c-1.144531-4.265625-5.527344-6.796875-9.792969-5.65625-38.378906 10.324219-61.15625 49.773438-50.910156 88.175781.9375 3.492188 4.101562 5.925782 7.71875 5.925782.703125.003906 1.402344-.085938 2.082031-.269532l30.902344-8.28125c2.050781-.546874 3.800781-1.886718 4.863281-3.726562zm-31.628906-5.664062c-2.894531-24.648438 10.742188-48.269532 33.535156-58.089844l4.199219 15.671875c-14.332031 7.203125-23.003906 22.246093-22.054687 38.257812zm0 0" fill="url(#i)"/><path d="m400 32h16v16h-16zm0 0" fill="url(#j)"/><path d="m352 8h16v16h-16zm0 0" fill="url(#k)"/></svg>